<svg width="25" height="25" viewBox="0 0 25 25" fill="none" xmlns="http://www.w3.org/2000/svg">
<path d="M9.375 0.434229C9.52713 0.619754 9.62032 0.846529 9.6426 1.08542C9.66487 1.32431 9.61521 1.5644 9.5 1.77485C8.59615 3.43321 8.12436 5.29243 8.12813 7.1811C8.12813 13.4639 13.25 18.5514 19.5625 18.5514C20.3875 18.5504 21.1859 18.467 21.9578 18.3014C22.1939 18.2509 22.4397 18.2708 22.6647 18.3585C22.8896 18.4463 23.0839 18.5981 23.2234 18.7952C23.3711 19.0003 23.4464 19.2486 23.4376 19.5011C23.4289 19.7536 23.3365 19.9961 23.175 20.1905C21.9494 21.6958 20.4034 22.9086 18.6497 23.7406C16.8959 24.5726 14.9786 25.0028 13.0375 24.9999C5.83437 24.9999 0 19.1967 0 12.0467C0 6.66548 3.30313 2.04985 8.00625 0.0936039C8.24045 -0.00592726 8.50067 -0.026523 8.74761 0.0349292C8.99455 0.0963813 9.21477 0.236542 9.375 0.434229ZM7.59062 2.04829C5.7823 3.01847 4.27057 4.46039 3.21605 6.22087C2.16153 7.98134 1.60361 9.99459 1.60156 12.0467C1.60156 18.328 6.725 23.4155 13.0375 23.4155C14.5491 23.4178 16.0461 23.1204 17.4421 22.5405C18.838 21.9607 20.1052 21.1099 21.1703 20.0374C20.6432 20.103 20.1073 20.1358 19.5625 20.1358C12.3594 20.1358 6.52656 14.3327 6.52656 7.18267C6.52656 5.35923 6.90469 3.62329 7.59062 2.04829Z" fill="black"/>
</svg>
