<svg width="47" height="20" viewBox="0 0 57 30" fill="none" xmlns="http://www.w3.org/2000/svg">
<path d="M8.832 29.72C6.95467 29.272 5.6 28.568 4.768 27.608C3.95733 26.6693 3.552 25.4533 3.552 23.96V19.48C3.552 18.4987 3.296 17.688 2.784 17.048C2.29333 16.3867 1.48267 15.9707 0.352 15.8V14.84C1.48267 14.6693 2.29333 14.264 2.784 13.624C3.296 12.9627 3.552 12.1413 3.552 11.16V6.68C3.552 5.208 3.95733 4.00267 4.768 3.064C5.6 2.12533 6.95467 1.41066 8.832 0.919998V1.88C7.76533 2.2 7.04 2.616 6.656 3.128C6.29333 3.64 6.112 4.39733 6.112 5.4V10.84C6.112 12.0987 5.83467 13.08 5.28 13.784C4.74667 14.488 3.904 15 2.752 15.32C3.904 15.64 4.74667 16.152 5.28 16.856C5.83467 17.56 6.112 18.5413 6.112 19.8V25.24C6.112 26.2427 6.29333 27 6.656 27.512C7.04 28.0453 7.76533 28.4613 8.832 28.76V29.72ZM21.2388 23.448C20.7694 23.448 20.3641 23.2773 20.0228 22.936C19.6814 22.5947 19.5108 22.1787 19.5108 21.688C19.5108 21.2187 19.6814 20.8133 20.0228 20.472C20.3641 20.1307 20.7694 19.96 21.2388 19.96C21.7294 19.96 22.1348 20.1307 22.4548 20.472C22.7961 20.8133 22.9668 21.2187 22.9668 21.688C22.9668 22.1787 22.7961 22.5947 22.4548 22.936C22.1134 23.2773 21.7081 23.448 21.2388 23.448ZM28.27 23.448C27.8007 23.448 27.3953 23.2773 27.054 22.936C26.7127 22.5947 26.542 22.1787 26.542 21.688C26.542 21.2187 26.7127 20.8133 27.054 20.472C27.3953 20.1307 27.8007 19.96 28.27 19.96C28.7607 19.96 29.166 20.1307 29.486 20.472C29.8273 20.8133 29.998 21.2187 29.998 21.688C29.998 22.1787 29.8273 22.5947 29.486 22.936C29.1447 23.2773 28.7393 23.448 28.27 23.448ZM35.3013 23.448C34.8319 23.448 34.4266 23.2773 34.0853 22.936C33.7439 22.5947 33.5733 22.1787 33.5733 21.688C33.5733 21.2187 33.7439 20.8133 34.0853 20.472C34.4266 20.1307 34.8319 19.96 35.3013 19.96C35.7919 19.96 36.1973 20.1307 36.5173 20.472C36.8586 20.8133 37.0293 21.2187 37.0293 21.688C37.0293 22.1787 36.8586 22.5947 36.5173 22.936C36.1759 23.2773 35.7706 23.448 35.3013 23.448ZM47.7085 28.76C48.7752 28.4613 49.4898 28.0453 49.8525 27.512C50.2365 27 50.4285 26.2427 50.4285 25.24V19.8C50.4285 18.5413 50.6952 17.56 51.2285 16.856C51.7832 16.152 52.6365 15.64 53.7885 15.32C52.6365 15 51.7832 14.488 51.2285 13.784C50.6952 13.08 50.4285 12.0987 50.4285 10.84V5.4C50.4285 4.39733 50.2365 3.64 49.8525 3.128C49.4898 2.616 48.7752 2.2 47.7085 1.88V0.919998C49.5858 1.41066 50.9298 2.12533 51.7405 3.064C52.5725 4.00267 52.9885 5.208 52.9885 6.68V11.16C52.9885 12.1413 53.2338 12.9627 53.7245 13.624C54.2365 14.264 55.0578 14.6693 56.1885 14.84V15.8C55.0578 15.9707 54.2365 16.3867 53.7245 17.048C53.2338 17.688 52.9885 18.4987 52.9885 19.48V23.96C52.9885 25.4533 52.5725 26.6693 51.7405 27.608C50.9298 28.568 49.5858 29.272 47.7085 29.72V28.76Z" fill="#E3E3E3"/>
</svg>
