<svg width="40" height="40" viewBox="0 0 40 40" fill="none" xmlns="http://www.w3.org/2000/svg">
<circle cx="20" cy="20" r="20" fill="black"/>
<path d="M16.3349 32.04C14.9269 31.704 13.9109 31.176 13.2869 30.456C12.6789 29.752 12.3749 28.84 12.3749 27.72V24.36C12.3749 23.624 12.1829 23.016 11.7989 22.536C11.4309 22.04 10.8229 21.728 9.97494 21.6V20.88C10.8229 20.752 11.4309 20.448 11.7989 19.968C12.1829 19.472 12.3749 18.856 12.3749 18.12V14.76C12.3749 13.656 12.6789 12.752 13.2869 12.048C13.9109 11.344 14.9269 10.808 16.3349 10.44V11.16C15.5349 11.4 14.9909 11.712 14.7029 12.096C14.4309 12.48 14.2949 13.048 14.2949 13.8V17.88C14.2949 18.824 14.0869 19.56 13.6709 20.088C13.2709 20.616 12.6389 21 11.7749 21.24C12.6389 21.48 13.2709 21.864 13.6709 22.392C14.0869 22.92 14.2949 23.656 14.2949 24.6V28.68C14.2949 29.432 14.4309 30 14.7029 30.384C14.9909 30.784 15.5349 31.096 16.3349 31.32V32.04ZM23.672 31.32C24.472 31.096 25.008 30.784 25.28 30.384C25.568 30 25.712 29.432 25.712 28.68V24.6C25.712 23.656 25.912 22.92 26.312 22.392C26.728 21.864 27.368 21.48 28.232 21.24C27.368 21 26.728 20.616 26.312 20.088C25.912 19.56 25.712 18.824 25.712 17.88V13.8C25.712 13.048 25.568 12.48 25.28 12.096C25.008 11.712 24.472 11.4 23.672 11.16V10.44C25.08 10.808 26.088 11.344 26.696 12.048C27.32 12.752 27.632 13.656 27.632 14.76V18.12C27.632 18.856 27.816 19.472 28.184 19.968C28.568 20.448 29.184 20.752 30.032 20.88V21.6C29.184 21.728 28.568 22.04 28.184 22.536C27.816 23.016 27.632 23.624 27.632 24.36V27.72C27.632 28.84 27.32 29.752 26.696 30.456C26.088 31.176 25.08 31.704 23.672 32.04V31.32Z" fill="white"/>
</svg>
